<?xml version="1.0" encoding="UTF-8"?>
<!DOCTYPE svg PUBLIC "-//W3C//DTD SVG 1.1//EN" "http://www.w3.org/Graphics/SVG/1.1/DTD/svg11.dtd">
<svg xmlns="http://www.w3.org/2000/svg" version="1.1" width="134px" height="137px" style="shape-rendering:crispEdges; text-rendering:geometricPrecision; image-rendering:optimizeQuality; fill-rule:evenodd; clip-rule:evenodd" xmlns:xlink="http://www.w3.org/1999/xlink" viewBox="-13.700000000000001 -13.700000000000001 161.4 164.4" preserveAspectRatio="xMidYMid meet">
-0.5,-0.5<g><path style="opacity:0" fill="none" d="M -0.5,-0.5 C 44.1667,-0.5 88.8333,-0.5 133.5,-0.5C 133.5,45.1667 133.5,90.8333 133.5,136.5C 88.8333,136.5 44.1667,136.5 -0.5,136.5C -0.5,90.8333 -0.5,45.1667 -0.5,-0.5 Z"/></g>
<g><path style="opacity:1" fill="#000000" d="M 102.5,46.5 C 104.572,47.5382 106.239,49.0382 107.5,51C 103.238,59.2983 96.5711,62.465 87.5,60.5C 87.5,59.8333 87.8333,59.5 88.5,59.5C 91.6492,59.7886 94.6492,59.2886 97.5,58C 87.458,54.4785 77.7914,50.1452 68.5,45C 64.8333,44.3333 61.1667,44.3333 57.5,45C 58.6853,46.353 60.0186,47.5197 61.5,48.5C 50.561,48.9315 43.061,54.2649 39,64.5C 36.1613,72.1728 35.9946,79.8395 38.5,87.5C 39.3624,86.2342 40.0291,84.9008 40.5,83.5C 41.1667,85.1667 41.8333,86.8333 42.5,88.5C 42.31,92.0318 42.9767,95.3652 44.5,98.5C 44.4614,99.7562 44.9614,100.756 46,101.5C 46.7891,99.2884 46.6225,97.2884 45.5,95.5C 44.8858,86.8987 46.5525,78.8987 50.5,71.5C 51.3957,70.4937 52.0623,70.4937 52.5,71.5C 54.0543,76.9085 57.3876,81.0752 62.5,84C 74.6134,90.9813 86.9468,91.3147 99.5,85C 105.933,82.0367 111.766,78.2034 117,73.5C 117.497,71.1902 117.663,68.8568 117.5,66.5C 117.721,63.9028 118.221,63.9028 119,66.5C 119.499,70.8206 119.666,75.1539 119.5,79.5C 114.336,108.667 97.0031,124 67.5,125.5C 43.6855,124.686 27.1855,113.352 18,91.5C 16.0271,80.4916 16.0271,69.4916 18,58.5C 19.5139,53.9715 21.6806,49.8048 24.5,46C 22.5,46.6667 20.5,47.3333 18.5,48C 28.1745,31.4945 42.5078,21.9945 61.5,19.5C 63.5769,16.6255 66.2436,14.4589 69.5,13C 70.9752,10.6908 72.6419,8.5241 74.5,6.5C 76.7198,10.4927 77.8865,14.826 78,19.5C 79.2899,17.208 80.9565,15.208 83,13.5C 83.0082,17.6238 82.1749,21.6238 80.5,25.5C 82.4548,27.9576 84.6215,30.291 87,32.5C 87.0265,36.3856 88.5265,39.5523 91.5,42C 95.1159,43.8115 98.7826,45.3115 102.5,46.5 Z"/></g>
<g><path style="opacity:0" fill="#ffffff" d="M 74.5,35.5 C 76.9775,35.0508 78.9775,35.7175 80.5,37.5C 78.9255,38.6309 77.2588,38.7975 75.5,38C 74.7476,37.3292 74.4142,36.4959 74.5,35.5 Z"/></g>
<g><path style="opacity:0" fill="#faf4f3"  d="M 88.5,59.5 C 81.6252,56.1236 74.2919,54.9569 66.5,56C 58.6817,58.6523 53.3484,63.819 50.5,71.5C 46.5525,78.8987 44.8858,86.8987 45.5,95.5C 45.7373,96.791 45.404,97.791 44.5,98.5C 42.9767,95.3652 42.31,92.0318 42.5,88.5C 42.6633,86.1432 42.4966,83.8098 42,81.5C 41.2828,82.0442 40.7828,82.7109 40.5,83.5C 40.0291,84.9008 39.3624,86.2342 38.5,87.5C 35.9946,79.8395 36.1613,72.1728 39,64.5C 43.061,54.2649 50.561,48.9315 61.5,48.5C 60.0186,47.5197 58.6853,46.353 57.5,45C 61.1667,44.3333 64.8333,44.3333 68.5,45C 77.7914,50.1452 87.458,54.4785 97.5,58C 94.6492,59.2886 91.6492,59.7886 88.5,59.5 Z"/></g>
<g><path style="opacity:0" fill="#fcf7f7" d="M 103.5,41.5 C 110.794,48.3983 115.46,56.7316 117.5,66.5C 117.663,68.8568 117.497,71.1902 117,73.5C 111.766,78.2034 105.933,82.0367 99.5,85C 86.9468,91.3147 74.6134,90.9813 62.5,84C 57.3876,81.0752 54.0543,76.9085 52.5,71.5C 56.8251,65.3449 62.4918,60.8449 69.5,58C 75.6145,57.8597 81.6145,58.6931 87.5,60.5C 96.5711,62.465 103.238,59.2983 107.5,51C 106.239,49.0382 104.572,47.5382 102.5,46.5C 103.497,46.5299 104.164,46.0299 104.5,45C 104.011,43.8615 103.678,42.6948 103.5,41.5 Z"/></g>
<g><path style="opacity:1" d="M 119.5,79.5 C 119.666,75.1539 119.499,70.8206 119,66.5C 118.221,63.9028 117.721,63.9028 117.5,66.5C 115.46,56.7316 110.794,48.3983 103.5,41.5C 100.97,38.4716 98.3029,35.6383 95.5,33C 95.6667,32.5 95.8333,32 96,31.5C 113.823,42.8092 121.656,58.8092 119.5,79.5 Z"/></g>
<g><path style="opacity:1" d="M 88.5,59.5 C 87.8333,59.5 87.5,59.8333 87.5,60.5C 81.6145,58.6931 75.6145,57.8597 69.5,58C 62.4918,60.8449 56.8251,65.3449 52.5,71.5C 52.0623,70.4937 51.3957,70.4937 50.5,71.5C 53.3484,63.819 58.6817,58.6523 66.5,56C 74.2919,54.9569 81.6252,56.1236 88.5,59.5 Z"/></g>

<g><path style="opacity:1"  d="M 42.5,88.5 C 41.8333,86.8333 41.1667,85.1667 40.5,83.5C 40.7828,82.7109 41.2828,82.0442 42,81.5C 42.4966,83.8098 42.6633,86.1432 42.5,88.5 Z"/></g>
<g><path style="opacity:1" d="M 45.5,95.5 C 46.6225,97.2884 46.7891,99.2884 46,101.5C 44.9614,100.756 44.4614,99.7562 44.5,98.5C 45.404,97.791 45.7373,96.791 45.5,95.5 Z"/></g>
</svg>
