<?xml version="1.0" encoding="UTF-8"?>
<!DOCTYPE svg PUBLIC "-//W3C//DTD SVG 1.1//EN" "http://www.w3.org/Graphics/SVG/1.1/DTD/svg11.dtd">
<svg xmlns="http://www.w3.org/2000/svg" version="1.1" width="106px" height="112px" style="shape-rendering:crispEdges; text-rendering:geometricPrecision; image-rendering:optimizeQuality; fill-rule:evenodd; clip-rule:evenodd" xmlns:xlink="http://www.w3.org/1999/xlink" viewBox="-11.200000000000001 -11.200000000000001 128.4 134.4" preserveAspectRatio="xMidYMid meet">
<g><path style="opacity:0" fill="none" d="M -0.5,-0.5 C 34.8333,-0.5 70.1667,-0.5 105.5,-0.5C 105.5,36.8333 105.5,74.1667 105.5,111.5C 70.1667,111.5 34.8333,111.5 -0.5,111.5C -0.5,74.1667 -0.5,36.8333 -0.5,-0.5 Z"/></g>
<g><path style="opacity:1" fill="#000000" d="M 32.5,15.5 C 31.8333,15.5 31.5,15.8333 31.5,16.5C 29.0863,15.5944 28.253,13.9278 29,11.5C 30.3756,12.7051 31.5423,14.0384 32.5,15.5 Z"/></g>
<g><path style="opacity:1" fill="#000000" d="M 79.5,26.5 C 78.609,25.8902 77.609,25.5569 76.5,25.5C 75.8825,23.7708 74.8825,22.2708 73.5,21C 66.8698,19.2079 60.3698,17.0413 54,14.5C 53.3333,13.8333 53.3333,13.1667 54,12.5C 59.8805,15.1799 66.0471,17.0133 72.5,18C 76.4024,19.5999 78.7358,22.4332 79.5,26.5 Z"/></g>
<g><path style="opacity:1" fill="#000000" d="M 76.5,25.5 C 77.609,25.5569 78.609,25.8902 79.5,26.5C 81.0618,26.7329 82.3951,27.3995 83.5,28.5C 83.9492,30.9775 83.2825,32.9775 81.5,34.5C 80.2706,32.0816 78.2706,31.0816 75.5,31.5C 72.6686,31.5412 70.002,32.2078 67.5,33.5C 68.09,34.7989 69.09,35.6322 70.5,36C 73.4816,36.498 76.4816,36.6646 79.5,36.5C 79.8942,39.8571 78.5609,42.1905 75.5,43.5C 74.5713,42.3112 74.238,40.9778 74.5,39.5C 72.8008,39.3398 71.1341,39.5065 69.5,40C 66.6086,41.7266 63.6086,43.2266 60.5,44.5C 56.5,44.5 52.5,44.5 48.5,44.5C 48.1699,41.8906 46.6699,40.2239 44,39.5C 43.3828,38.5509 43.5494,37.7175 44.5,37C 42.1558,36.1628 40.1558,34.8294 38.5,33C 39.3081,32.6924 39.9747,32.1924 40.5,31.5C 38.2276,30.8658 36.5609,29.5324 35.5,27.5C 37.5,26.8333 39.5,26.1667 41.5,25.5C 43.1033,25.6882 44.4366,25.1882 45.5,24C 39.4611,23.7395 34.7944,21.2395 31.5,16.5C 31.5,15.8333 31.8333,15.5 32.5,15.5C 33.2613,16.3909 34.2613,17.0576 35.5,17.5C 37.4113,12.4642 39.4113,12.6309 41.5,18C 42.8333,18.6667 44.1667,19.3333 45.5,20C 51.1624,19.9269 56.829,19.9269 62.5,20C 66.6432,23.2409 71.3099,25.0742 76.5,25.5 Z"/></g>
<g><path style="opacity:0" fill="#f3cdcb" d="M 59.5,25.5 C 60.5676,24.5655 61.901,24.2322 63.5,24.5C 63.719,25.675 63.3857,26.675 62.5,27.5C 61.4822,26.8075 60.4822,26.1408 59.5,25.5 Z"/></g>
<g><path style="opacity:1" fill="#000000" d="M 41.5,25.5 C 39.5,26.1667 37.5,26.8333 35.5,27.5C 35.1667,27.5 34.8333,27.5 34.5,27.5C 36.2789,25.6565 38.6122,24.9898 41.5,25.5 Z"/></g>
<g><path style="opacity:0" fill="#f2dfde" d="M 34.5,27.5 C 34.8333,27.5 35.1667,27.5 35.5,27.5C 36.5609,29.5324 38.2276,30.8658 40.5,31.5C 39.9747,32.1924 39.3081,32.6924 38.5,33C 40.1558,34.8294 42.1558,36.1628 44.5,37C 43.5494,37.7175 43.3828,38.5509 44,39.5C 46.6699,40.2239 48.1699,41.8906 48.5,44.5C 52.5,44.5 56.5,44.5 60.5,44.5C 56.4431,45.0685 52.4431,46.0685 48.5,47.5C 47.0193,45.7531 45.0193,44.5864 42.5,44C 42.0183,42.9916 41.8516,41.825 42,40.5C 38.3664,36.8519 34.5331,33.5186 30.5,30.5C 32.0764,29.8571 33.4097,28.8571 34.5,27.5 Z"/></g>
<g><path style="opacity:0" fill="#dc9896" d="M 19.5,39.5 C 20.0065,40.8589 21.0065,41.8589 22.5,42.5C 22.0431,43.2975 21.3764,43.6309 20.5,43.5C 19.7222,42.8444 19.0556,42.0111 18.5,41C 18.5699,40.2352 18.9033,39.7352 19.5,39.5 Z"/></g>
<g><path style="opacity:1" fill="#000000" d="M 85.5,36.5 C 96.7818,48.9439 99.4485,62.9439 93.5,78.5C 92.551,76.2627 91.8844,73.9294 91.5,71.5C 95.4455,59.0899 92.7788,47.9232 83.5,38C 83.8361,36.9701 84.5028,36.4701 85.5,36.5 Z"/></g>
<g><path style="opacity:0" fill="#f8f0ef" d="M 83.5,28.5 C 84.8112,30.5598 84.8112,32.7265 83.5,35C 84.4158,35.2784 85.0825,35.7784 85.5,36.5C 84.5028,36.4701 83.8361,36.9701 83.5,38C 92.7788,47.9232 95.4455,59.0899 91.5,71.5C 91.0108,60.4819 85.6775,53.1486 75.5,49.5C 72.3601,48.3592 69.0267,48.1925 65.5,49C 64.944,49.3826 64.6107,49.8826 64.5,50.5C 56.9945,54.7461 55.4945,60.7461 60,68.5C 61.4659,70.3249 63.2992,70.8249 65.5,70C 64.2054,67.1993 64.2054,64.3659 65.5,61.5C 68.5674,59.9479 71.0674,60.6145 73,63.5C 75.4445,68.99 74.9445,73.99 71.5,78.5C 71.1788,76.9519 70.1788,76.2852 68.5,76.5C 68.2517,72.032 65.9183,70.532 61.5,72C 62.9494,73.117 64.6161,73.7837 66.5,74C 66,74.5 65.5,75 65,75.5C 59.7911,73.957 54.6244,72.6237 49.5,71.5C 51.5,71.5 53.5,71.5 55.5,71.5C 55.0074,69.1944 54.6741,66.861 54.5,64.5C 55.4614,62.7354 55.7947,60.7354 55.5,58.5C 52.5,58.5 49.5,58.5 46.5,58.5C 45.8333,58.5 45.1667,58.5 44.5,58.5C 42.744,59.5521 42.0773,61.2188 42.5,63.5C 40.7704,62.0243 39.4371,62.3576 38.5,64.5C 39.2624,64.9106 40.2624,65.0773 41.5,65C 38.2137,67.1317 37.547,69.9651 39.5,73.5C 37.8372,71.5615 37.1706,69.2282 37.5,66.5C 37.5,64.5 37.5,62.5 37.5,60.5C 38.7652,58.6431 38.4318,56.9764 36.5,55.5C 39.5575,51.3122 43.5575,48.6456 48.5,47.5C 52.4431,46.0685 56.4431,45.0685 60.5,44.5C 63.6086,43.2266 66.6086,41.7266 69.5,40C 71.1341,39.5065 72.8008,39.3398 74.5,39.5C 74.238,40.9778 74.5713,42.3112 75.5,43.5C 78.5609,42.1905 79.8942,39.8571 79.5,36.5C 76.4816,36.6646 73.4816,36.498 70.5,36C 69.09,35.6322 68.09,34.7989 67.5,33.5C 70.002,32.2078 72.6686,31.5412 75.5,31.5C 78.2706,31.0816 80.2706,32.0816 81.5,34.5C 83.2825,32.9775 83.9492,30.9775 83.5,28.5 Z"/></g>
<g><path style="opacity:0" fill="#d98282" d="M 75.5,49.5 C 71.7657,49.3227 68.0991,49.6561 64.5,50.5C 64.6107,49.8826 64.944,49.3826 65.5,49C 69.0267,48.1925 72.3601,48.3592 75.5,49.5 Z"/></g>
<g><path style="opacity:01" fill="#000000" d="M 30.5,30.5 C 34.5331,33.5186 38.3664,36.8519 42,40.5C 41.8516,41.825 42.0183,42.9916 42.5,44C 45.0193,44.5864 47.0193,45.7531 48.5,47.5C 43.5575,48.6456 39.5575,51.3122 36.5,55.5C 28.6965,62.9005 26.3631,71.9005 29.5,82.5C 29.4843,74.2563 31.4843,66.5896 35.5,59.5C 36.1667,61.8333 36.8333,64.1667 37.5,66.5C 37.1706,69.2282 37.8372,71.5615 39.5,73.5C 41.8686,80.5353 46.5352,85.2019 53.5,87.5C 54.6216,88.1558 55.9549,88.4892 57.5,88.5C 59.8825,88.639 61.8825,87.9723 63.5,86.5C 67.1884,84.8116 69.8551,82.145 71.5,78.5C 74.9445,73.99 75.4445,68.99 73,63.5C 71.0674,60.6145 68.5674,59.9479 65.5,61.5C 64.2054,64.3659 64.2054,67.1993 65.5,70C 63.2992,70.8249 61.4659,70.3249 60,68.5C 55.4945,60.7461 56.9945,54.7461 64.5,50.5C 68.0991,49.6561 71.7657,49.3227 75.5,49.5C 85.6775,53.1486 91.0108,60.4819 91.5,71.5C 91.8844,73.9294 92.551,76.2627 93.5,78.5C 87.2183,93.0013 76.2183,101.835 60.5,105C 43.3311,106.323 29.9977,99.8234 20.5,85.5C 19.8106,84.2264 18.9772,84.2264 18,85.5C 17.7679,84.2625 17.2679,83.2625 16.5,82.5C 14.8779,76.6759 15.2112,71.0092 17.5,65.5C 16.9984,64.479 16.3317,64.3123 15.5,65C 14,66.5 12.5,68 11,69.5C 10.1593,65.8798 10.826,62.5464 13,59.5C 15.1667,57.3333 17.3333,55.1667 19.5,53C 17.0049,52.8425 14.6716,52.6759 12.5,52.5C 14.4754,48.8595 17.142,45.8595 20.5,43.5C 21.3764,43.6309 22.0431,43.2975 22.5,42.5C 21.0065,41.8589 20.0065,40.8589 19.5,39.5C 22.5609,35.7737 26.2275,32.7737 30.5,30.5 Z"/></g>
<g><path style="opacity:0" fill="#fbf9f9" d="M 42.5,63.5 C 42.1866,66.2469 42.52,68.9135 43.5,71.5C 44.2975,71.0431 44.6309,70.3764 44.5,69.5C 46.2962,68.2342 46.6295,68.5675 45.5,70.5C 46.6888,71.4287 48.0222,71.762 49.5,71.5C 54.6244,72.6237 59.7911,73.957 65,75.5C 65.5,75 66,74.5 66.5,74C 64.6161,73.7837 62.9494,73.117 61.5,72C 65.9183,70.532 68.2517,72.032 68.5,76.5C 70.1788,76.2852 71.1788,76.9519 71.5,78.5C 69.8551,82.145 67.1884,84.8116 63.5,86.5C 60.2139,87.2071 56.8806,87.5405 53.5,87.5C 46.5352,85.2019 41.8686,80.5353 39.5,73.5C 37.547,69.9651 38.2137,67.1317 41.5,65C 40.2624,65.0773 39.2624,64.9106 38.5,64.5C 39.4371,62.3576 40.7704,62.0243 42.5,63.5 Z"/></g>
<g><path style="opacity:0" fill="#dea7a4" d="M 44.5,58.5 C 43.2134,62.2684 43.2134,65.9351 44.5,69.5C 44.6309,70.3764 44.2975,71.0431 43.5,71.5C 42.52,68.9135 42.1866,66.2469 42.5,63.5C 42.0773,61.2188 42.744,59.5521 44.5,58.5 Z"/></g>
<g><path style="opacity:0" fill="#000000" d="M 44.5,58.5 C 45.1667,58.5 45.8333,58.5 46.5,58.5C 48.7397,59.2644 51.0731,60.0977 53.5,61C 54.3366,62.0113 54.67,63.1779 54.5,64.5C 54.6741,66.861 55.0074,69.1944 55.5,71.5C 53.5,71.5 51.5,71.5 49.5,71.5C 48.0222,71.762 46.6888,71.4287 45.5,70.5C 46.6295,68.5675 46.2962,68.2342 44.5,69.5C 43.2134,65.9351 43.2134,62.2684 44.5,58.5 Z"/></g>
<g><path style="opacity:0" fill="#000000" d="M 35.5,59.5 C 36.6226,58.2426 37.2893,58.5759 37.5,60.5C 37.5,62.5 37.5,64.5 37.5,66.5C 36.8333,64.1667 36.1667,61.8333 35.5,59.5 Z"/></g>
<g><path style="opacity:0" fill="#dfaaac" d="M 46.5,58.5 C 49.5,58.5 52.5,58.5 55.5,58.5C 55.7947,60.7354 55.4614,62.7354 54.5,64.5C 54.67,63.1779 54.3366,62.0113 53.5,61C 51.0731,60.0977 48.7397,59.2644 46.5,58.5 Z"/></g>
<g><path style="opacity:0" fill="#efd2cf" d="M 36.5,55.5 C 38.4318,56.9764 38.7652,58.6431 37.5,60.5C 37.2893,58.5759 36.6226,58.2426 35.5,59.5C 31.4843,66.5896 29.4843,74.2563 29.5,82.5C 26.3631,71.9005 28.6965,62.9005 36.5,55.5 Z"/></g>
<g><path style="opacity:0" fill="#d3888b" d="M 16.5,82.5 C 17.2679,83.2625 17.7679,84.2625 18,85.5C 18.9772,84.2264 19.8106,84.2264 20.5,85.5C 19.2921,86.2341 17.9587,86.5674 16.5,86.5C 16.5,85.1667 16.5,83.8333 16.5,82.5 Z"/></g>
<g><path style="opacity:0" fill="#e5a5a8" d="M 63.5,86.5 C 61.8825,87.9723 59.8825,88.639 57.5,88.5C 55.9549,88.4892 54.6216,88.1558 53.5,87.5C 56.8806,87.5405 60.2139,87.2071 63.5,86.5 Z"/></g>
</svg>
