<?xml version="1.0" encoding="UTF-8"?>
<!DOCTYPE svg PUBLIC "-//W3C//DTD SVG 1.1//EN" "http://www.w3.org/Graphics/SVG/1.1/DTD/svg11.dtd">
<svg xmlns="http://www.w3.org/2000/svg" version="1.1" width="134px" height="115px" style="shape-rendering:crispEdges; text-rendering:geometricPrecision; image-rendering:optimizeQuality; fill-rule:evenodd; clip-rule:evenodd" xmlns:xlink="http://www.w3.org/1999/xlink" viewBox="-13.4 -13.4 160.8 141.8" preserveAspectRatio="xMidYMid meet">
-0.5,-0.5<g><path style="opacity:0" fill="none" d="M -0.5,-0.5 C 44.1667,-0.5 88.8333,-0.5 133.5,-0.5C 133.5,37.8333 133.5,76.1667 133.5,114.5C 88.8333,114.5 44.1667,114.5 -0.5,114.5C -0.5,76.1667 -0.5,37.8333 -0.5,-0.5 Z"/></g>
<g><path style="opacity:0" fill="#df9994" d="M 48.5,17.5 C 46.1432,17.3367 43.8098,17.5034 41.5,18C 49.053,19.2942 56.053,21.9609 62.5,26C 63.6956,26.6543 63.6956,27.1543 62.5,27.5C 53.4036,21.3928 43.4036,18.7261 32.5,19.5C 37.6342,16.8061 42.9675,16.1394 48.5,17.5 Z"/></g>
<g><path style="opacity:1" fill="#000000" d="M 48.5,17.5 C 62.3017,19.9835 73.9684,26.3168 83.5,36.5C 91.0045,44.0067 96.3378,52.84 99.5,63C 99.3905,65.2552 98.3905,66.9219 96.5,68C 93.2889,69.1532 89.9555,69.8198 86.5,70C 84.5439,72.8103 81.8772,74.3103 78.5,74.5C 79.9205,71.7387 80.5871,68.7387 80.5,65.5C 78.1667,65.5 75.8333,65.5 73.5,65.5C 68.9501,64.1209 65.7834,61.1209 64,56.5C 63.5511,61.4274 65.7178,64.9274 70.5,67C 69.944,67.3826 69.6107,67.8826 69.5,68.5C 62.3655,72.7647 58.8655,79.098 59,87.5C 60.3124,82.6866 62.8124,78.6866 66.5,75.5C 69.1849,80.1922 73.1849,82.8588 78.5,83.5C 84.2628,82.1162 89.9294,80.4495 95.5,78.5C 100.13,77.7705 104.797,77.4372 109.5,77.5C 110.5,78.1667 111.5,78.8333 112.5,79.5C 112.414,80.4959 112.748,81.3292 113.5,82C 116.876,82.3071 118.21,84.1405 117.5,87.5C 107.559,103.969 92.8923,111.136 73.5,109C 55.385,103.883 44.5517,92.0498 41,73.5C 39.9441,63.5872 42.1108,54.5872 47.5,46.5C 48.0431,46.44 48.3764,46.1067 48.5,45.5C 44.6875,44.8329 41.0208,44.1663 37.5,43.5C 40.5971,40.1116 44.2637,37.4449 48.5,35.5C 50.3628,35.1541 51.1961,34.1541 51,32.5C 49.6439,33.3802 48.1439,33.7135 46.5,33.5C 38.3412,30.5761 30.3412,30.9094 22.5,34.5C 20.2512,35.0798 18.5846,36.4131 17.5,38.5C 13.8541,41.1512 10.8541,44.4846 8.5,48.5C 9.69928,38.3766 14.3659,29.8766 22.5,23C 25.6051,21.1319 28.9385,19.9652 32.5,19.5C 43.4036,18.7261 53.4036,21.3928 62.5,27.5C 63.6956,27.1543 63.6956,26.6543 62.5,26C 56.053,21.9609 49.053,19.2942 41.5,18C 43.8098,17.5034 46.1432,17.3367 48.5,17.5 Z"/></g>
<g><path style="opacity:0" fill="#faf5f4" d="M 89.5,31.5 C 114.085,39.3203 123.752,55.987 118.5,81.5C 116.297,81.3964 114.297,80.7298 112.5,79.5C 111.5,78.8333 110.5,78.1667 109.5,77.5C 107.866,76.8389 106.033,76.5056 104,76.5C 100.85,76.3603 98.0169,77.027 95.5,78.5C 89.9294,80.4495 84.2628,82.1162 78.5,83.5C 73.1849,82.8588 69.1849,80.1922 66.5,75.5C 62.8124,78.6866 60.3124,82.6866 59,87.5C 58.8655,79.098 62.3655,72.7647 69.5,68.5C 70.8333,67.5 72.1667,66.5 73.5,65.5C 75.8333,65.5 78.1667,65.5 80.5,65.5C 80.5871,68.7387 79.9205,71.7387 78.5,74.5C 81.8772,74.3103 84.5439,72.8103 86.5,70C 89.9555,69.8198 93.2889,69.1532 96.5,68C 98.3905,66.9219 99.3905,65.2552 99.5,63C 96.3378,52.84 91.0045,44.0067 83.5,36.5C 84.3764,36.6309 85.0431,36.2975 85.5,35.5C 84.3595,34.5745 84.3595,33.7412 85.5,33C 87.0581,32.79 88.3915,32.29 89.5,31.5 Z"/></g>
<g><path style="opacity:0" fill="#d57e81" d="M 48.5,35.5 C 47.8333,34.8333 47.1667,34.1667 46.5,33.5C 48.1439,33.7135 49.6439,33.3802 51,32.5C 51.1961,34.1541 50.3628,35.1541 48.5,35.5 Z"/></g>
<g><path style="opacity:0" fill="#ebafb4" d="M 22.5,34.5 C 21.4154,36.5869 19.7488,37.9202 17.5,38.5C 18.5846,36.4131 20.2512,35.0798 22.5,34.5 Z"/></g>
<g><path style="opacity:0" fill="#f3cecc" d="M 79.5,40.5 C 81.7288,41.0553 83.3954,42.3886 84.5,44.5C 81.2936,45.5793 79.6269,44.2459 79.5,40.5 Z"/></g>
<g><path style="opacity:0" fill="#ce6a6f" d="M 37.5,43.5 C 41.0208,44.1663 44.6875,44.8329 48.5,45.5C 48.3764,46.1067 48.0431,46.44 47.5,46.5C 43.9792,45.8337 40.3125,45.1671 36.5,44.5C 36.6236,43.8933 36.9569,43.56 37.5,43.5 Z"/></g>
<g><path style="opacity:1" fill="#000000" d="M 117.5,87.5 C 118.21,84.1405 116.876,82.3071 113.5,82C 112.748,81.3292 112.414,80.4959 112.5,79.5C 114.297,80.7298 116.297,81.3964 118.5,81.5C 123.752,55.987 114.085,39.3203 89.5,31.5C 81.6253,29.7496 81.6253,28.9162 89.5,29C 115.181,36.8586 125.681,54.0253 121,80.5C 119.968,82.9944 118.802,85.3277 117.5,87.5 Z"/></g>

</svg>
