<?xml version="1.0" encoding="UTF-8"?>
<!DOCTYPE svg PUBLIC "-//W3C//DTD SVG 1.1//EN" "http://www.w3.org/Graphics/SVG/1.1/DTD/svg11.dtd">
<svg xmlns="http://www.w3.org/2000/svg" version="1.1" width="96px" height="101px" style="shape-rendering:crispEdges; text-rendering:geometricPrecision; image-rendering:optimizeQuality; fill-rule:evenodd; clip-rule:evenodd" xmlns:xlink="http://www.w3.org/1999/xlink" viewBox="-10.100000000000001 -10.100000000000001 116.2 121.2" preserveAspectRatio="xMidYMid meet">
-0.5,-0.5<g><path style="opacity:0" fill="none" d="M -0.5,-0.5 C 31.5,-0.5 63.5,-0.5 95.5,-0.5C 95.5,33.1667 95.5,66.8333 95.5,100.5C 63.5,100.5 31.5,100.5 -0.5,100.5C -0.5,66.8333 -0.5,33.1667 -0.5,-0.5 Z"/></g>
<g><path style="opacity:1" fill="#000" d="M 50.5,5.5 C 51.1653,7.69789 51.8319,10.0312 52.5,12.5C 53.1067,12.3764 53.44,12.0431 53.5,11.5C 54.8382,9.33021 56.6716,7.66355 59,6.5C 58.6713,9.70077 57.838,12.8674 56.5,16C 60.043,21.9541 63.2097,28.1208 66,34.5C 66.2532,37.2004 66.2532,39.867 66,42.5C 69.432,48.3641 72.5986,54.3641 75.5,60.5C 77.0206,68.9811 73.3539,72.6478 64.5,71.5C 64.2378,68.309 62.9045,65.6423 60.5,63.5C 55.2082,61.3379 49.8748,59.1712 44.5,57C 41.3283,54.9936 38.6617,52.4936 36.5,49.5C 33.4099,52.6789 31.0766,56.3456 29.5,60.5C 27.6896,63.145 26.6896,66.145 26.5,69.5C 25.1905,73.3507 25.1905,77.3507 26.5,81.5C 27.2975,81.0431 27.6309,80.3764 27.5,79.5C 27.448,77.0971 27.7814,74.7638 28.5,72.5C 28.3691,71.6236 28.7025,70.9569 29.5,70.5C 42.7937,81.4118 56.7937,82.4118 71.5,73.5C 74.117,72.2141 76.4504,70.5475 78.5,68.5C 81.4923,65.8782 84.4923,63.2115 87.5,60.5C 88.1174,60.3893 88.6174,60.056 89,59.5C 89.1745,54.6486 89.6745,49.9819 90.5,45.5C 92.4076,66.792 83.741,82.292 64.5,92C 52.3101,95.4858 40.3101,95.3191 28.5,91.5C 28.0269,90.0937 27.0269,89.427 25.5,89.5C 14.9711,83.1158 8.97114,73.7825 7.5,61.5C 7.18503,57.6286 7.51836,53.9619 8.5,50.5C 8.5,50.8333 8.5,51.1667 8.5,51.5C 9.21588,56.3666 10.5492,61.0333 12.5,65.5C 13.7347,68.3013 15.2347,70.9679 17,73.5C 16.6843,69.8687 15.5176,66.5353 13.5,63.5C 11.906,55.2815 12.2393,47.2815 14.5,39.5C 15.1239,39.0831 15.4573,38.4164 15.5,37.5C 14.7745,36.1331 14.1079,34.7997 13.5,33.5C 20.7914,21.5196 31.4581,15.1863 45.5,14.5C 45.5032,10.4213 47.1698,7.42126 50.5,5.5 Z"/></g>
<g><path style="opacity:1" fill="#000" d="M 90.5,45.5 C 89.6745,49.9819 89.1745,54.6486 89,59.5C 88.6174,60.056 88.1174,60.3893 87.5,60.5C 90.9797,38.4556 82.6463,22.7889 62.5,13.5C 64.9515,12.6858 67.2849,13.1858 69.5,15C 78.4976,20.3312 84.9976,27.8312 89,37.5C 90.0793,40.0627 90.5793,42.7294 90.5,45.5 Z"/></g>
<g><path style="opacity:0" fill="#e8c7c7" d="M 56.5,36.5 C 58.3464,36.2222 59.6798,36.8888 60.5,38.5C 59.3112,39.4287 57.9778,39.762 56.5,39.5C 56.5,38.5 56.5,37.5 56.5,36.5 Z"/></g>

</svg>
