<?xml version="1.0" encoding="UTF-8"?>
<!DOCTYPE svg PUBLIC "-//W3C//DTD SVG 1.1//EN" "http://www.w3.org/Graphics/SVG/1.1/DTD/svg11.dtd">
<svg xmlns="http://www.w3.org/2000/svg" version="1.1" width="111px" height="120px" style="shape-rendering:crispEdges; text-rendering:geometricPrecision; image-rendering:optimizeQuality; fill-rule:evenodd; clip-rule:evenodd" xmlns:xlink="http://www.w3.org/1999/xlink" viewBox="-12 -12 135 144" preserveAspectRatio="xMidYMid meet">
<g><path style="opacity:0" fill="none" d="M -0.5,-0.5 C 36.5,-0.5 73.5,-0.5 110.5,-0.5C 110.5,39.5 110.5,79.5 110.5,119.5C 73.5,119.5 36.5,119.5 -0.5,119.5C -0.5,79.5 -0.5,39.5 -0.5,-0.5 Z"/></g>
<g><path style="opacity:0" fill="#fbf7f6" d="M 68.5,21.5 C 72.7028,22.5556 74.2028,25.2223 73,29.5C 70.1997,30.1253 67.3664,30.792 64.5,31.5C 67.1765,34.0215 70.0098,34.0215 73,31.5C 73.2224,36.225 71.3891,40.0584 67.5,43C 64.6089,44.2742 61.9422,45.7742 59.5,47.5C 57.9368,44.0846 56.4368,40.4179 55,36.5C 49.085,33.5788 44.085,29.5788 40,24.5C 38.7467,13.4544 43.58,7.95442 54.5,8C 55.7659,8.30945 56.9326,8.80945 58,9.5C 56.3956,18.0588 59.8956,22.0588 68.5,21.5 Z"/></g>
<g><path style="opacity:1" fill="#000000" d="M 48.5,17.5 C 51.9103,17.3838 53.2436,19.0504 52.5,22.5C 48.065,23.0776 46.7317,21.4109 48.5,17.5 Z"/></g>
<g><path style="opacity:1" fill="#000000" d="M 70.5,20.5 C 70.1583,21.3382 69.4916,21.6716 68.5,21.5C 59.8956,22.0588 56.3956,18.0588 58,9.5C 56.9326,8.80945 55.7659,8.30945 54.5,8C 43.58,7.95442 38.7467,13.4544 40,24.5C 44.085,29.5788 49.085,33.5788 55,36.5C 56.4368,40.4179 57.9368,44.0846 59.5,47.5C 60.1667,47.5 60.5,47.8333 60.5,48.5C 54.8409,49.3122 50.6742,52.3122 48,57.5C 43.8638,63.2327 42.1972,69.566 43,76.5C 43.9941,70.8467 46.3274,65.8467 50,61.5C 50.9765,68.4737 54.8099,72.9737 61.5,75C 74.4722,76.6192 85.8055,73.1192 95.5,64.5C 99.2223,67.2235 101.222,70.8902 101.5,75.5C 101.468,78.0758 102.135,80.4091 103.5,82.5C 97.4855,99.697 85.4855,110.197 67.5,114C 31.9131,116.586 12.2464,100.086 8.5,64.5C 9.55152,52.673 13.5515,42.0063 20.5,32.5C 15.7284,24.1916 17.0617,17.025 24.5,11C 33.2815,5.04325 42.9482,3.04325 53.5,5C 55.8884,5.30339 58.0551,6.13672 60,7.5C 60.203,11.4213 60.703,15.2546 61.5,19C 64.544,19.3629 67.544,19.8629 70.5,20.5 Z"/></g>
<g><path style="opacity:0" fill="#fbf5f5" d="M 26.5,22.5 C 34.4792,22.4871 37.8125,26.4871 36.5,34.5C 28.3604,34.3686 25.0271,30.3686 26.5,22.5 Z"/></g>
<g><path style="opacity:0" fill="#fbf6f5" d="M 79.5,21.5 C 78.2241,22.3864 78.2241,23.3864 79.5,24.5C 99.4667,36.5928 106.8,53.5928 101.5,75.5C 101.222,70.8902 99.2223,67.2235 95.5,64.5C 85.8055,73.1192 74.4722,76.6192 61.5,75C 54.8099,72.9737 50.9765,68.4737 50,61.5C 46.3274,65.8467 43.9941,70.8467 43,76.5C 42.1972,69.566 43.8638,63.2327 48,57.5C 50.6742,52.3122 54.8409,49.3122 60.5,48.5C 72.3632,44.46 77.3632,36.1267 75.5,23.5C 76.2216,23.9175 76.7216,24.5842 77,25.5C 77.2022,23.7444 77.7022,22.0777 78.5,20.5C 79.1067,20.6236 79.44,20.9569 79.5,21.5 Z"/></g>
<g><path style="opacity:1" fill="#000000" d="M 79.5,21.5 C 103.625,35.5498 111.625,55.8831 103.5,82.5C 102.135,80.4091 101.468,78.0758 101.5,75.5C 106.8,53.5928 99.4667,36.5928 79.5,24.5C 78.2241,23.3864 78.2241,22.3864 79.5,21.5 Z"/></g>
<g><path style="opacity:1" fill="#000000" d="M 70.5,20.5 C 72.4113,21.075 74.078,22.075 75.5,23.5C 77.3632,36.1267 72.3632,44.46 60.5,48.5C 60.5,47.8333 60.1667,47.5 59.5,47.5C 61.9422,45.7742 64.6089,44.2742 67.5,43C 71.3891,40.0584 73.2224,36.225 73,31.5C 70.0098,34.0215 67.1765,34.0215 64.5,31.5C 67.3664,30.792 70.1997,30.1253 73,29.5C 74.2028,25.2223 72.7028,22.5556 68.5,21.5C 69.4916,21.6716 70.1583,21.3382 70.5,20.5 Z"/></g>

</svg>
