<?xml version="1.0" encoding="UTF-8"?>
<!DOCTYPE svg PUBLIC "-//W3C//DTD SVG 1.1//EN" "http://www.w3.org/Graphics/SVG/1.1/DTD/svg11.dtd">
<svg xmlns="http://www.w3.org/2000/svg" version="1.1" width="109px" height="122px" style="shape-rendering:crispEdges; text-rendering:geometricPrecision; image-rendering:optimizeQuality; fill-rule:evenodd; clip-rule:evenodd" xmlns:xlink="http://www.w3.org/1999/xlink" viewBox="-12.200000000000001 -12.200000000000001 133.4 146.4" preserveAspectRatio="xMidYMid meet">
<g><path style="opacity:0" fill="none" d="M -0.5,-0.5 C 35.8333,-0.5 72.1667,-0.5 108.5,-0.5C 108.5,40.1667 108.5,80.8333 108.5,121.5C 72.1667,121.5 35.8333,121.5 -0.5,121.5C -0.5,80.8333 -0.5,40.1667 -0.5,-0.5 Z"/></g>
<g><path style="opacity:1" fill="#000000" d="M 44.5,15.5 C 42.6907,14.7093 40.6907,14.7093 38.5,15.5C 41.1368,13.5726 44.1368,13.0726 47.5,14C 46.4734,14.5133 45.4734,15.0133 44.5,15.5 Z"/></g>

<g><path style="opacity:1" fill="#000000" d="M 18.5,33.5 C 21.4925,33.2919 24.4925,32.9586 27.5,32.5C 28.0431,32.56 28.3764,32.8933 28.5,33.5C 25.1849,34.5527 21.8515,34.5527 18.5,33.5 Z"/></g>
<g><path style="opacity:1" fill="#000000" d="M 59.5,28.5 C 84.0903,34.6942 95.0903,50.3609 92.5,75.5C 91.8333,71.5 91.1667,67.5 90.5,63.5C 87.0183,45.0163 76.0183,33.683 57.5,29.5C 57.9569,28.7025 58.6236,28.3691 59.5,28.5 Z"/></g>
<g><path style="opacity:1" fill="#000000" d="M 44.5,15.5 C 42.4946,17.334 40.3279,19.0007 38,20.5C 34.4507,28.953 36.6174,31.1196 44.5,27C 48.3115,25.5927 51.6448,23.426 54.5,20.5C 55.3857,21.325 55.719,22.325 55.5,23.5C 54.3721,26.4054 52.7054,29.0721 50.5,31.5C 53.3617,34.0666 55.695,37.0666 57.5,40.5C 64.8455,42.2083 66.1788,45.8749 61.5,51.5C 55.2017,50.8354 49.535,52.1687 44.5,55.5C 35.6282,60.2078 30.4615,67.5411 29,77.5C 33.3486,67.9857 40.1819,60.9857 49.5,56.5C 51.11,59.2033 52.11,62.2033 52.5,65.5C 53.0061,68.1973 54.3394,70.364 56.5,72C 64.1667,72.3333 71.8333,72.6667 79.5,73C 83.1846,74.1823 86.5179,76.0156 89.5,78.5C 90.2216,78.0825 90.7216,77.4158 91,76.5C 91.4643,77.0944 91.631,77.7611 91.5,78.5C 89.2492,88.0121 84.2492,95.6788 76.5,101.5C 70.4846,105.01 64.1513,107.677 57.5,109.5C 32.2939,109.938 17.2939,97.9378 12.5,73.5C 12.3748,67.7969 12.7081,62.1302 13.5,56.5C 14.8276,50.3425 17.8276,45.1759 22.5,41C 20.5225,38.8526 19.1892,36.3526 18.5,33.5C 21.8515,34.5527 25.1849,34.5527 28.5,33.5C 28.3764,32.8933 28.0431,32.56 27.5,32.5C 25.1953,29.6161 25.0286,26.6161 27,23.5C 29.8804,19.4512 33.7138,16.7846 38.5,15.5C 40.6907,14.7093 42.6907,14.7093 44.5,15.5 Z"/></g>
<g><path style="opacity:0" fill="#eaa79e" d="M 46.5,36.5 C 48.9828,36.73 49.4828,37.3966 48,38.5C 46.9701,38.1639 46.4701,37.4972 46.5,36.5 Z"/></g>
<g><path style="opacity:1" fill="#000000" d="M 13.5,56.5 C 12.7081,62.1302 12.3748,67.7969 12.5,73.5C 11.8367,71.3587 11.5034,69.0254 11.5,66.5C 11.3148,62.8589 11.9814,59.5256 13.5,56.5 Z"/></g>
<g><path style="opacity:1" fill="#000000" d="M 90.5,63.5 C 91.1667,67.5 91.8333,71.5 92.5,75.5C 92.7373,76.791 92.404,77.791 91.5,78.5C 91.631,77.7611 91.4643,77.0944 91,76.5C 90.7216,77.4158 90.2216,78.0825 89.5,78.5C 90.254,73.5365 90.5874,68.5365 90.5,63.5 Z"/></g>
</svg>
