<?xml version="1.0" encoding="UTF-8"?>
<!DOCTYPE svg PUBLIC "-//W3C//DTD SVG 1.1//EN" "http://www.w3.org/Graphics/SVG/1.1/DTD/svg11.dtd">
<svg xmlns="http://www.w3.org/2000/svg" version="1.1" width="113px" height="122px" style="shape-rendering:crispEdges; text-rendering:geometricPrecision; image-rendering:optimizeQuality; fill-rule:evenodd; clip-rule:evenodd" xmlns:xlink="http://www.w3.org/1999/xlink" viewBox="-12.200000000000001 -12.200000000000001 137.4 146.4" preserveAspectRatio="xMidYMid meet">
-0.5,-0.5<g><path style="opacity:0" fill="none" d="M -0.5,-0.5 C 37.1667,-0.5 74.8333,-0.5 112.5,-0.5C 112.5,40.1667 112.5,80.8333 112.5,121.5C 74.8333,121.5 37.1667,121.5 -0.5,121.5C -0.5,80.8333 -0.5,40.1667 -0.5,-0.5 Z"/></g>
<g><path style="opacity:1" fill="#000000" d="M 87.5,37.5 C 84.946,38.6056 82.2794,39.439 79.5,40C 83.1123,40.6744 86.4456,40.1744 89.5,38.5C 91.0281,38.5173 91.5281,39.184 91,40.5C 86.2096,46.9592 81.0429,53.1259 75.5,59C 69.6114,63.4099 63.2781,67.0766 56.5,70C 46.9372,75.9665 43.7706,84.4665 47,95.5C 47.3333,97.1667 47.6667,98.8333 48,100.5C 48.2272,95.1028 48.8938,89.7695 50,84.5C 51.093,82.6508 52.4263,80.9842 54,79.5C 63.4194,85.4819 73.586,86.9819 84.5,84C 89.2685,82.4499 93.9352,80.6166 98.5,78.5C 102.977,66.4154 101.977,54.7487 95.5,43.5C 95.8076,42.6919 96.3076,42.0253 97,41.5C 101.602,48.6424 103.769,56.4758 103.5,65C 102.348,90.8133 89.3484,107.147 64.5,114C 35.3916,117.368 16.2249,105.202 7,77.5C 2.63401,54.066 10.4673,35.8993 30.5,23C 33.7894,22.2536 36.2894,23.4203 38,26.5C 38.8736,23.9969 38.207,21.9969 36,20.5C 35.5017,17.1832 35.335,13.8499 35.5,10.5C 39.9857,9.99439 43.819,11.3277 47,14.5C 49.4457,4.56097 52.9457,4.06097 57.5,13C 63.5,17.6667 69.5,22.3333 75.5,27C 79.1667,27.6667 82.8333,27.6667 86.5,27C 87.2106,25.7453 88.044,24.5786 89,23.5C 91.1261,27.2972 91.6261,31.2972 90.5,35.5C 89.4822,36.1925 88.4822,36.8592 87.5,37.5 Z"/></g>
<g><path style="opacity:0" fill="#f1d3d5" d="M 65.5,29.5 C 66.5983,30.6009 66.765,31.9343 66,33.5C 64.8173,34.731 63.6507,34.731 62.5,33.5C 63.5244,32.1482 64.5244,30.8149 65.5,29.5 Z"/></g>
</svg>
