<?xml version="1.0" encoding="UTF-8"?>
<!DOCTYPE svg PUBLIC "-//W3C//DTD SVG 1.1//EN" "http://www.w3.org/Graphics/SVG/1.1/DTD/svg11.dtd">
<svg xmlns="http://www.w3.org/2000/svg" version="1.1" width="119px" height="127px" style="shape-rendering:crispEdges; text-rendering:geometricPrecision; image-rendering:optimizeQuality; fill-rule:evenodd; clip-rule:evenodd" xmlns:xlink="http://www.w3.org/1999/xlink" viewBox="-12.700000000000001 -12.700000000000001 144.4 152.4" preserveAspectRatio="xMidYMid meet">
-0.5,-0.5<g><path style="opacity:0" fill="none" d="M -0.5,-0.5 C 39.1667,-0.5 78.8333,-0.5 118.5,-0.5C 118.5,41.8333 118.5,84.1667 118.5,126.5C 78.8333,126.5 39.1667,126.5 -0.5,126.5C -0.5,84.1667 -0.5,41.8333 -0.5,-0.5 Z"/></g>
<g><path style="opacity:1" fill="#000000" d="M 51.5,23.5 C 52.0037,27.531 52.6704,31.531 53.5,35.5C 66.8096,36.4961 77.143,42.4961 84.5,53.5C 83.0436,57.7462 81.0436,61.7462 78.5,65.5C 75.3116,66.9252 72.3116,68.5919 69.5,70.5C 68.5,70.5 67.5,70.5 66.5,70.5C 62.2576,70.9208 58.2576,70.2541 54.5,68.5C 52.4998,66.329 50.6665,63.9957 49,61.5C 49.1797,64.855 50.6797,67.5216 53.5,69.5C 54.2905,70.4013 55.2905,71.0679 56.5,71.5C 59.5,72.1667 62.5,72.8333 65.5,73.5C 61.9081,78.5323 60.5748,84.1989 61.5,90.5C 61.4914,92.3084 61.9914,93.9751 63,95.5C 63.4974,92.854 63.6641,90.1873 63.5,87.5C 64.5585,86.3998 65.3918,85.0664 66,83.5C 66.3333,84.1667 66.6667,84.8333 67,85.5C 67.7203,83.8876 67.5536,82.3876 66.5,81C 67.1667,80.3333 67.8333,79.6667 68.5,79C 73.4889,78.5007 78.4889,78.3341 83.5,78.5C 89.3112,79.7389 94.6445,82.0722 99.5,85.5C 100.167,86.8333 100.833,88.1667 101.5,89.5C 95.5686,101.488 85.9019,108.655 72.5,111C 47.9023,113.122 32.4023,102.289 26,78.5C 25.3333,72.8333 25.3333,67.1667 26,61.5C 27.728,56.4717 30.228,51.9717 33.5,48C 29.4252,43.9252 25.2586,39.7586 21,35.5C 18.0118,31.1915 15.8451,26.5249 14.5,21.5C 21.4039,21.0658 28.0705,22.0658 34.5,24.5C 36.7887,26.448 39.122,28.448 41.5,30.5C 41.8333,30.3333 42.1667,30.1667 42.5,30C 40.9697,27.648 39.3031,25.4813 37.5,23.5C 37.3341,18.4889 37.5007,13.4889 38,8.5C 38.3076,7.69194 38.8076,7.02527 39.5,6.5C 40.8139,7.31277 41.9805,8.31277 43,9.5C 45.6966,14.3379 48.5299,19.0046 51.5,23.5 Z"/></g>
<g><path style="opacity:1" fill="#000" d="M 60.5,30.5 C 82.5483,29.2649 97.3816,38.9315 105,59.5C 107.666,70.064 106.499,80.064 101.5,89.5C 100.833,88.1667 100.167,86.8333 99.5,85.5C 101.093,84.6521 102.26,83.3187 103,81.5C 107.357,61.2224 100.524,46.0557 82.5,36C 74.9168,34.063 67.5835,32.2297 60.5,30.5 Z"/></g>
</svg>
