<?xml version="1.0" encoding="UTF-8"?>
<!DOCTYPE svg PUBLIC "-//W3C//DTD SVG 1.1//EN" "http://www.w3.org/Graphics/SVG/1.1/DTD/svg11.dtd">
<svg xmlns="http://www.w3.org/2000/svg" version="1.1" width="107px" height="121px" style="shape-rendering:crispEdges; text-rendering:geometricPrecision; image-rendering:optimizeQuality; fill-rule:evenodd; clip-rule:evenodd" xmlns:xlink="http://www.w3.org/1999/xlink" viewBox="-12.100000000000001 -12.100000000000001 131.2 145.2" preserveAspectRatio="xMidYMid meet">
<g><path style="opacity:0" fill="none" d="M -0.5,-0.5 C 35.1667,-0.5 70.8333,-0.5 106.5,-0.5C 106.5,39.8333 106.5,80.1667 106.5,120.5C 70.8333,120.5 35.1667,120.5 -0.5,120.5C -0.5,80.1667 -0.5,39.8333 -0.5,-0.5 Z"/></g>
<g><path style="opacity:1" fill="#000000" d="M 40.5,16.5 C 35.3812,15.0407 30.3812,15.3741 25.5,17.5C 27.5076,15.0728 30.1743,14.0728 33.5,14.5C 36.2046,14.3161 38.5379,14.9827 40.5,16.5 Z"/></g>
<g><path style="opacity:1" fill="#000000" d="M 72.5,41.5 C 69.1789,46.129 65.8456,50.7957 62.5,55.5C 54.515,61.135 49.8483,68.8016 48.5,78.5C 47.1,83.1014 47.2666,87.768 49,92.5C 49.4966,90.1902 49.6633,87.8568 49.5,85.5C 50.1431,80.5497 51.6431,75.8831 54,71.5C 55.8234,73.167 57.99,74.167 60.5,74.5C 65.5049,72.6635 70.5049,70.8301 75.5,69C 81.0144,68.0701 86.3477,68.5701 91.5,70.5C 91.56,71.0431 91.8933,71.3764 92.5,71.5C 93.8003,68.6908 93.8003,66.0241 92.5,63.5C 92.552,61.0971 92.2186,58.7638 91.5,56.5C 91.4088,54.3023 92.0755,53.9689 93.5,55.5C 93.5,55.8333 93.5,56.1667 93.5,56.5C 94.3197,62.7974 94.653,69.1308 94.5,75.5C 89.5067,96.484 76.1733,107.817 54.5,109.5C 33.9171,108.409 20.9171,98.076 15.5,78.5C 14.746,73.5365 14.4126,68.5365 14.5,63.5C 14.657,57.0226 16.657,51.1893 20.5,46C 24.7843,46.4569 29.1177,46.4569 33.5,46C 26.0027,45.5006 21.1693,41.6673 19,34.5C 17.1801,27.1031 19.3468,21.4364 25.5,17.5C 30.3812,15.3741 35.3812,15.0407 40.5,16.5C 44.688,18.025 47.0213,21.025 47.5,25.5C 47.7086,26.9217 48.2086,28.255 49,29.5C 49.7958,26.9615 49.6291,24.6282 48.5,22.5C 46.7867,19.14 45.1201,15.8067 43.5,12.5C 55.062,11.7314 60.7287,17.0648 60.5,28.5C 65.3134,28.2197 69.9801,28.8863 74.5,30.5C 74.8333,31.3333 75.1667,32.1667 75.5,33C 74.6334,35.8958 73.6334,38.7291 72.5,41.5 Z"/></g>
<g><path style="opacity:1" fill="#000000" d="M 48.5,22.5 C 49.6291,24.6282 49.7958,26.9615 49,29.5C 48.2086,28.255 47.7086,26.9217 47.5,25.5C 48.404,24.791 48.7373,23.791 48.5,22.5 Z"/></g>
<g><path style="opacity:1" fill="#000000" d="M 93.5,55.5 C 92.0755,53.9689 91.4088,54.3023 91.5,56.5C 89.7033,52.2473 87.3699,48.2473 84.5,44.5C 83.2073,42.7041 81.7073,41.0375 80,39.5C 79.3123,38.6683 79.479,38.0016 80.5,37.5C 86.4004,42.3956 90.7337,48.3956 93.5,55.5 Z"/></g>
<g><path style="opacity:1" fill="#000000" d="M 14.5,63.5 C 14.4126,68.5365 14.746,73.5365 15.5,78.5C 14.0092,75.8136 13.3425,72.8136 13.5,69.5C 13.5046,67.3035 13.838,65.3035 14.5,63.5 Z"/></g>
</svg>
