<?xml version="1.0" encoding="UTF-8"?>
<!DOCTYPE svg PUBLIC "-//W3C//DTD SVG 1.1//EN" "http://www.w3.org/Graphics/SVG/1.1/DTD/svg11.dtd">
<svg xmlns="http://www.w3.org/2000/svg" version="1.1" width="116px" height="124px" style="shape-rendering:crispEdges; text-rendering:geometricPrecision; image-rendering:optimizeQuality; fill-rule:evenodd; clip-rule:evenodd" xmlns:xlink="http://www.w3.org/1999/xlink" viewBox="-12.4 -12.4 140.8 148.8" preserveAspectRatio="xMidYMid meet">
-0.5,-0.5<g><path style="opacity:0" fill="none" d="M -0.5,-0.5 C 38.1667,-0.5 76.8333,-0.5 115.5,-0.5C 115.5,40.8333 115.5,82.1667 115.5,123.5C 76.8333,123.5 38.1667,123.5 -0.5,123.5C -0.5,82.1667 -0.5,40.8333 -0.5,-0.5 Z"/></g>
<g><path style="opacity:1" fill="#000" d="M 31.5,8.5 C 33.594,11.4218 36.2607,13.9218 39.5,16C 44.9382,17.3591 50.2716,19.0257 55.5,21C 58.5949,24.3007 59.2616,28.134 57.5,32.5C 52.423,26.9634 46.0897,24.13 38.5,24C 30.7568,21.4116 28.4235,16.2449 31.5,8.5 Z"/></g>
<g><path style="opacity:1" fill="#000" d="M 36.5,48.5 C 27.7268,57.3121 23.5601,67.9788 24,80.5C 25.9997,71.5043 29.833,63.5043 35.5,56.5C 35.6337,75.7988 45.3004,84.2988 64.5,82C 77.1066,74.5253 81.2733,63.692 77,49.5C 75.8022,45.2541 73.3022,42.0875 69.5,40C 79.0192,42.0265 86.5192,47.1931 92,55.5C 92.2542,48.3076 89.4209,42.4743 83.5,38C 94.3466,40.1686 101.513,46.6686 105,57.5C 110.591,87.2751 99.0912,107.442 70.5,118C 40.5428,122.774 20.3761,110.94 10,82.5C 5.30813,57.0274 14.1415,38.0274 36.5,25.5C 45.4781,26.1525 52.4781,30.1525 57.5,37.5C 55.2573,38.4742 52.924,38.8076 50.5,38.5C 50.389,43.446 51.0557,48.2794 52.5,53C 51.6228,59.387 48.2895,61.0537 42.5,58C 40.3038,54.493 38.9705,50.6597 38.5,46.5C 37.4777,46.8555 36.811,47.5222 36.5,48.5 Z"/></g>
</svg>
