<?xml version="1.0" encoding="UTF-8"?>
<!DOCTYPE svg PUBLIC "-//W3C//DTD SVG 1.1//EN" "http://www.w3.org/Graphics/SVG/1.1/DTD/svg11.dtd">
<svg xmlns="http://www.w3.org/2000/svg" version="1.1" width="101px" height="103px" style="shape-rendering:crispEdges; text-rendering:geometricPrecision; image-rendering:optimizeQuality; fill-rule:evenodd; clip-rule:evenodd" xmlns:xlink="http://www.w3.org/1999/xlink" viewBox="-10.3 -10.3 121.6 123.6" preserveAspectRatio="xMidYMid meet">
<g><path style="opacity:0" fill="none" d="M -0.5,-0.5 C 33.1667,-0.5 66.8333,-0.5 100.5,-0.5C 100.5,33.8333 100.5,68.1667 100.5,102.5C 66.8333,102.5 33.1667,102.5 -0.5,102.5C -0.5,68.1667 -0.5,33.8333 -0.5,-0.5 Z"/></g>
<g><path style="opacity:1" fill="#000000" d="M 70.5,22.5 C 69.325,22.281 68.325,22.6143 67.5,23.5C 71.8157,24.6199 72.4824,26.7866 69.5,30C 66.3489,30.7396 63.6822,32.2396 61.5,34.5C 60.6143,33.675 60.281,32.675 60.5,31.5C 57.0415,31.1191 53.7082,30.6191 50.5,30C 48.5749,34.9137 50.2415,37.7471 55.5,38.5C 58.1764,38.163 60.843,37.8297 63.5,37.5C 63.4944,40.8502 62.4944,43.8502 60.5,46.5C 55.5213,43.8315 50.188,42.8315 44.5,43.5C 43.2347,42.5207 41.9014,41.5207 40.5,40.5C 39.6054,42.3448 40.2721,43.6782 42.5,44.5C 43.4558,45.6594 44.4558,46.8261 45.5,48C 38.2933,55.2979 35.6267,64.1312 37.5,74.5C 37.8923,76.1789 38.3923,77.8455 39,79.5C 39.4992,74.8452 39.6658,70.1785 39.5,65.5C 40.4404,62.2857 41.9404,59.2857 44,56.5C 46.4888,60.8325 49.9888,63.8325 54.5,65.5C 54.1924,67.924 54.5258,70.2573 55.5,72.5C 56.1067,72.3764 56.44,72.0431 56.5,71.5C 57.6298,69.6854 58.2964,67.6854 58.5,65.5C 62.4871,65.7161 66.3204,65.0495 70,63.5C 70.7648,63.5699 71.2648,63.9033 71.5,64.5C 71.3367,66.8568 71.5034,69.1902 72,71.5C 73.0386,70.7562 73.5386,69.7562 73.5,68.5C 74.0841,65.5274 74.7508,62.5274 75.5,59.5C 79.4295,58.5672 83.4295,58.2338 87.5,58.5C 87.56,59.0431 87.8933,59.3764 88.5,59.5C 89.4841,56.5719 89.8174,53.5719 89.5,50.5C 90.5012,54.0597 90.8345,58.393 90.5,63.5C 82.4768,88.1918 65.4768,98.6918 39.5,95C 22.8923,89.2591 13.2256,77.7591 10.5,60.5C 13.617,60.6423 16.117,61.9756 18,64.5C 18.1667,64.1667 18.3333,63.8333 18.5,63.5C 16.1456,60.4789 13.4789,57.8123 10.5,55.5C 10.431,50.3844 11.0976,45.3844 12.5,40.5C 14.9288,40.585 16.9288,41.585 18.5,43.5C 18.8333,43.1667 19.1667,42.8333 19.5,42.5C 17.3551,40.8565 15.3551,39.0231 13.5,37C 15.8084,32.2053 18.475,27.7053 21.5,23.5C 23.604,23.7989 25.604,23.4656 27.5,22.5C 27.0431,21.7025 26.3764,21.3691 25.5,21.5C 21.8986,17.5727 21.5653,13.2394 24.5,8.5C 26.1667,8.16667 27.8333,7.83333 29.5,7.5C 37.8423,8.69222 46.1756,9.85889 54.5,11C 59.7355,15.0841 65.0688,18.9174 70.5,22.5 Z"/></g>
<g><path style="opacity:1" fill="#000000" d="M 75.5,23.5 C 88.4282,33.9604 93.4282,47.2937 90.5,63.5C 90.8345,58.393 90.5012,54.0597 89.5,50.5C 89.1667,50.5 88.8333,50.5 88.5,50.5C 87.6425,40.8007 83.4758,32.8007 76,26.5C 75.5172,25.552 75.3505,24.552 75.5,23.5 Z"/></g>
</svg>
